# xmcd
#
# Track frame offsets:
#	150
#	13237
#	22271
#	31500
#	40414
#	50288
#	61647
#	73191
#	82964
#	92943
#	105413
#
# Disc length: 1537 seconds
# Revision: 0
# Processed by: cddbd v1.5.2PL0 Copyright (c) Steve Scherf et al.
# Submitted via: dBpowerAMP V12.0
#
DISCID=8505ff0b
DTITLE=Tom T Hall - Country Songs For Kids
DYEAR=1989
DGENRE=Country
TTITLE0=Let's Go Shopping Today
TTITLE1=Fox Hollow's Animal Train
TTITLE2=The Word Song
TTITLE3=The Dancing Tree
TTITLE4=Let's Play Remember
TTITLE5=You Are A Star
TTITLE6=Why Is It So Hard To Say No
TTITLE7=Randy Raccoon
TTITLE8=That's What Songs Are For
TTITLE9=The Duck And The Rooster
TTITLE10=Let's Spend Christmas At My House
EXTD=
EXTT0=
EXTT1=
EXTT2=
EXTT3=
EXTT4=
EXTT5=
EXTT6=
EXTT7=
EXTT8=
EXTT9=
EXTT10=
PLAYORDER=
